# xmcd
#
# Track frame offsets:
#	150
#	22355
#	41255
#	61415
#	77143
#	99825
#	120885
#	139720
#	157883
#	178143
#
# Disc length: 2638 seconds
#
# Revision: 2
# Processed by: cddbd v1.4PL0 Copyright (c) Steve Scherf et al.
# Submitted via: audiograbber 1.81.03
#
DISCID=760a4c0a
DTITLE=Troy Newman - Gypsy Moon
DYEAR=1991
DGENRE=Rock
TTITLE0=Love Gets Rough
TTITLE1=Raining
TTITLE2=God Only Knows
TTITLE3=Always Time
TTITLE4=I Can Feel It
TTITLE5=Whisper
TTITLE6=Gone Are The Days
TTITLE7=Drive My Car
TTITLE8=So Deep
TTITLE9=It Takes Time
EXTD=
EXTT0=
EXTT1=
EXTT2=
EXTT3=
EXTT4=
EXTT5=
EXTT6=
EXTT7=
EXTT8=
EXTT9=
PLAYORDER=
